<svg xmlns="http://www.w3.org/2000/svg" version="1.1" xmlns:xlink="http://www.w3.org/1999/xlink" xmlns:svgjs="http://svgjs.com/svgjs" width="512" height="512" x="0" y="0" viewBox="0 0 32 32" style="enable-background:new 0 0 512 512" xml:space="preserve" class=""><g transform="matrix(0.9500000000000002,0,0,0.9500000000000002,0.8000000238418554,0.7999999999999972)"><path d="M24.64 4.99h1.54v-2H5.82v2h1.55c.12 11.37 14.3 11.8 15.25 22.02H9.41c.28-3.73 2.37-6.12 4.97-8.25-.54-.4-1.08-.81-1.63-1.24-2.78 2.33-5.11 5.09-5.37 9.49H5.82v2h20.36v-2h-1.56c-.31-5.23-3.55-8.15-6.98-10.78 3.63-2.8 6.84-5.74 7-11.24zm-15.27 0h13.26c-.13 4.79-3.28 7.44-6.63 9.99-3.42-2.61-6.49-5.21-6.64-9.99z" fill="#c89f33" data-original="#000000" class="" opacity="1"></path></g></svg>