<svg xmlns="http://www.w3.org/2000/svg" version="1.1" xmlns:xlink="http://www.w3.org/1999/xlink" xmlns:svgjs="http://svgjs.com/svgjs" width="512" height="512" x="0" y="0" viewBox="0 0 512 512" style="enable-background:new 0 0 512 512" xml:space="preserve" fill-rule="evenodd" class=""><g><path fill="#e03a1a" d="M256 512C115 512 0 397 0 256S115 0 256 0s256 115 256 256-115 256-256 256z" data-original="#e03a1a"></path><path fill="#bf381f" d="M256 478C134 478 34 378 34 256S134 34 256 34s222 100 222 222-100 222-222 222z" data-original="#bf381f"></path><path fill="#e0eef1" d="M256 464c-115 0-208-93-208-208S141 48 256 48s208 93 208 208-93 208-208 208z" data-original="#e0eef1" class=""></path><path fill="#e03a1a" d="M348 384c-2 0-4-1-5-2l-87-86-86 86c-3 3-7 3-10 0l-30-29c-1-2-2-4-2-5 0-3 1-4 2-5l86-87-86-86c-1-1-2-3-2-5s1-3 2-5l30-29c1-1 3-2 5-2s4 1 5 2l86 86 86-86c1-1 3-2 5-2s3 1 5 2l29 29c3 3 3 8 0 11l-85 85 86 86c3 3 3 8 0 11l-29 29c-2 1-4 2-5 2z" data-original="#e03a1a"></path></g></svg>